<?xml version="1.0" encoding="UTF-8"?>
<!DOCTYPE svg PUBLIC "-//W3C//DTD SVG 1.1//EN" "http://www.w3.org/Graphics/SVG/1.1/DTD/svg11.dtd">
<svg version="1.1" xmlns="http://www.w3.org/2000/svg" xmlns:xlink="http://www.w3.org/1999/xlink" x="0px" y="0px" width="128" height="128" viewBox="0, 0, 128, 128">
  <g id="Background">
    <rect x="0" y="0" width="128" height="128" fill="#000000" fill-opacity="0"/>
  </g>
  <g id="Background"/>
  <g id="Background">
    <path d="M18.092,6 L109.903,6 C116.552,6 122,11.441 122,18.096 L122,109.902 C122,116.559 116.552,122 109.903,122 L18.092,122 C11.436,122 6,116.559 6,109.902 L6,18.096 C6,11.441 11.436,6 18.092,6" fill="#737370"/>
    <path d="M63,27 L25,101 L103,101 L63,27 z" fill-opacity="0" stroke="#EBEDED" stroke-width="6" stroke-linecap="square"/>
    <path d="M77,69.819 Q77,72.08 76.282,73.814 Q75.564,75.549 74.25,76.825 Q72.935,78.101 71.098,79.108 Q69.26,80.115 66.948,80.943 L66.948,86.047 L58.38,86.047 L58.38,78.504 Q60.108,78.078 61.508,77.631 Q62.907,77.183 64.441,76.176 Q65.877,75.28 66.692,74.094 Q67.507,72.908 67.507,71.408 Q67.507,69.17 65.938,68.219 Q64.368,67.267 61.52,67.267 Q59.767,67.267 57.565,67.961 Q55.362,68.655 53.536,69.752 L52.563,69.752 L52.563,62.925 Q54.12,62.321 57.358,61.66 Q60.595,61 63.929,61 Q69.941,61 73.471,63.44 Q77,65.88 77,69.819 z M67.629,95 L57.796,95 L57.796,89.091 L67.629,89.091 z" fill="#EBEDED"/>
  </g>
  <defs/>
</svg>
