<?xml version="1.0" encoding="UTF-8"?>
<!DOCTYPE svg PUBLIC "-//W3C//DTD SVG 1.1//EN" "http://www.w3.org/Graphics/SVG/1.1/DTD/svg11.dtd">
<svg version="1.1" xmlns="http://www.w3.org/2000/svg" xmlns:xlink="http://www.w3.org/1999/xlink" x="0px" y="0px" width="128" height="128" viewBox="0, 0, 128, 128">
  <g id="Background">
    <rect x="0" y="0" width="128" height="128" fill="#000000" fill-opacity="0"/>
    <g stroke-width="1px">
      <line x1="2" y1="0" x2="2" y2="128" stroke="#B9B9B9" stroke-opacity="0.25"/>
      <line x1="4" y1="0" x2="4" y2="128" stroke="#B9B9B9" stroke-opacity="0.25"/>
      <line x1="6" y1="0" x2="6" y2="128" stroke="#B9B9B9" stroke-opacity="0.25"/>
      <line x1="8" y1="0" x2="8" y2="128" stroke="#B9B9B9" stroke-opacity="0.25"/>
      <line x1="10" y1="0" x2="10" y2="128" stroke="#B9B9B9" stroke-opacity="0.25"/>
      <line x1="12" y1="0" x2="12" y2="128" stroke="#B9B9B9" stroke-opacity="0.5"/>
      <line x1="14" y1="0" x2="14" y2="128" stroke="#B9B9B9" stroke-opacity="0.25"/>
      <line x1="16" y1="0" x2="16" y2="128" stroke="#B9B9B9" stroke-opacity="0.25"/>
      <line x1="18" y1="0" x2="18" y2="128" stroke="#B9B9B9" stroke-opacity="0.25"/>
      <line x1="20" y1="0" x2="20" y2="128" stroke="#B9B9B9" stroke-opacity="0.25"/>
      <line x1="22" y1="0" x2="22" y2="128" stroke="#B9B9B9" stroke-opacity="0.25"/>
      <line x1="24" y1="0" x2="24" y2="128" stroke="#B9B9B9" stroke-opacity="0.5"/>
      <line x1="26" y1="0" x2="26" y2="128" stroke="#B9B9B9" stroke-opacity="0.25"/>
      <line x1="28" y1="0" x2="28" y2="128" stroke="#B9B9B9" stroke-opacity="0.25"/>
      <line x1="30" y1="0" x2="30" y2="128" stroke="#B9B9B9" stroke-opacity="0.25"/>
      <line x1="32" y1="0" x2="32" y2="128" stroke="#B9B9B9" stroke-opacity="0.25"/>
      <line x1="34" y1="0" x2="34" y2="128" stroke="#B9B9B9" stroke-opacity="0.25"/>
      <line x1="36" y1="0" x2="36" y2="128" stroke="#B9B9B9" stroke-opacity="0.5"/>
      <line x1="38" y1="0" x2="38" y2="128" stroke="#B9B9B9" stroke-opacity="0.25"/>
      <line x1="40" y1="0" x2="40" y2="128" stroke="#B9B9B9" stroke-opacity="0.25"/>
      <line x1="42" y1="0" x2="42" y2="128" stroke="#B9B9B9" stroke-opacity="0.25"/>
      <line x1="44" y1="0" x2="44" y2="128" stroke="#B9B9B9" stroke-opacity="0.25"/>
      <line x1="46" y1="0" x2="46" y2="128" stroke="#B9B9B9" stroke-opacity="0.25"/>
      <line x1="48" y1="0" x2="48" y2="128" stroke="#B9B9B9" stroke-opacity="0.5"/>
      <line x1="50" y1="0" x2="50" y2="128" stroke="#B9B9B9" stroke-opacity="0.25"/>
      <line x1="52" y1="0" x2="52" y2="128" stroke="#B9B9B9" stroke-opacity="0.25"/>
      <line x1="54" y1="0" x2="54" y2="128" stroke="#B9B9B9" stroke-opacity="0.25"/>
      <line x1="56" y1="0" x2="56" y2="128" stroke="#B9B9B9" stroke-opacity="0.25"/>
      <line x1="58" y1="0" x2="58" y2="128" stroke="#B9B9B9" stroke-opacity="0.25"/>
      <line x1="60" y1="0" x2="60" y2="128" stroke="#B9B9B9" stroke-opacity="0.5"/>
      <line x1="62" y1="0" x2="62" y2="128" stroke="#B9B9B9" stroke-opacity="0.25"/>
      <line x1="64" y1="0" x2="64" y2="128" stroke="#B9B9B9" stroke-opacity="0.25"/>
      <line x1="66" y1="0" x2="66" y2="128" stroke="#B9B9B9" stroke-opacity="0.25"/>
      <line x1="68" y1="0" x2="68" y2="128" stroke="#B9B9B9" stroke-opacity="0.25"/>
      <line x1="70" y1="0" x2="70" y2="128" stroke="#B9B9B9" stroke-opacity="0.25"/>
      <line x1="72" y1="0" x2="72" y2="128" stroke="#B9B9B9" stroke-opacity="0.5"/>
      <line x1="74" y1="0" x2="74" y2="128" stroke="#B9B9B9" stroke-opacity="0.25"/>
      <line x1="76" y1="0" x2="76" y2="128" stroke="#B9B9B9" stroke-opacity="0.25"/>
      <line x1="78" y1="0" x2="78" y2="128" stroke="#B9B9B9" stroke-opacity="0.25"/>
      <line x1="80" y1="0" x2="80" y2="128" stroke="#B9B9B9" stroke-opacity="0.25"/>
      <line x1="82" y1="0" x2="82" y2="128" stroke="#B9B9B9" stroke-opacity="0.25"/>
      <line x1="84" y1="0" x2="84" y2="128" stroke="#B9B9B9" stroke-opacity="0.5"/>
      <line x1="86" y1="0" x2="86" y2="128" stroke="#B9B9B9" stroke-opacity="0.25"/>
      <line x1="88" y1="0" x2="88" y2="128" stroke="#B9B9B9" stroke-opacity="0.25"/>
      <line x1="90" y1="0" x2="90" y2="128" stroke="#B9B9B9" stroke-opacity="0.25"/>
      <line x1="92" y1="0" x2="92" y2="128" stroke="#B9B9B9" stroke-opacity="0.25"/>
      <line x1="94" y1="0" x2="94" y2="128" stroke="#B9B9B9" stroke-opacity="0.25"/>
      <line x1="96" y1="0" x2="96" y2="128" stroke="#B9B9B9" stroke-opacity="0.5"/>
      <line x1="98" y1="0" x2="98" y2="128" stroke="#B9B9B9" stroke-opacity="0.25"/>
      <line x1="100" y1="0" x2="100" y2="128" stroke="#B9B9B9" stroke-opacity="0.25"/>
      <line x1="102" y1="0" x2="102" y2="128" stroke="#B9B9B9" stroke-opacity="0.25"/>
      <line x1="104" y1="0" x2="104" y2="128" stroke="#B9B9B9" stroke-opacity="0.25"/>
      <line x1="106" y1="0" x2="106" y2="128" stroke="#B9B9B9" stroke-opacity="0.25"/>
      <line x1="108" y1="0" x2="108" y2="128" stroke="#B9B9B9" stroke-opacity="0.5"/>
      <line x1="110" y1="0" x2="110" y2="128" stroke="#B9B9B9" stroke-opacity="0.25"/>
      <line x1="112" y1="0" x2="112" y2="128" stroke="#B9B9B9" stroke-opacity="0.25"/>
      <line x1="114" y1="0" x2="114" y2="128" stroke="#B9B9B9" stroke-opacity="0.25"/>
      <line x1="116" y1="0" x2="116" y2="128" stroke="#B9B9B9" stroke-opacity="0.25"/>
      <line x1="118" y1="0" x2="118" y2="128" stroke="#B9B9B9" stroke-opacity="0.25"/>
      <line x1="120" y1="0" x2="120" y2="128" stroke="#B9B9B9" stroke-opacity="0.5"/>
      <line x1="122" y1="0" x2="122" y2="128" stroke="#B9B9B9" stroke-opacity="0.25"/>
      <line x1="124" y1="0" x2="124" y2="128" stroke="#B9B9B9" stroke-opacity="0.25"/>
      <line x1="126" y1="0" x2="126" y2="128" stroke="#B9B9B9" stroke-opacity="0.25"/>
      <line x1="128" y1="0" x2="128" y2="128" stroke="#B9B9B9" stroke-opacity="0.25"/>
      <line x1="0" y1="2" x2="128" y2="2" stroke="#B9B9B9" stroke-opacity="0.25"/>
      <line x1="0" y1="4" x2="128" y2="4" stroke="#B9B9B9" stroke-opacity="0.25"/>
      <line x1="0" y1="6" x2="128" y2="6" stroke="#B9B9B9" stroke-opacity="0.25"/>
      <line x1="0" y1="8" x2="128" y2="8" stroke="#B9B9B9" stroke-opacity="0.25"/>
      <line x1="0" y1="10" x2="128" y2="10" stroke="#B9B9B9" stroke-opacity="0.25"/>
      <line x1="0" y1="12" x2="128" y2="12" stroke="#B9B9B9" stroke-opacity="0.5"/>
      <line x1="0" y1="14" x2="128" y2="14" stroke="#B9B9B9" stroke-opacity="0.25"/>
      <line x1="0" y1="16" x2="128" y2="16" stroke="#B9B9B9" stroke-opacity="0.25"/>
      <line x1="0" y1="18" x2="128" y2="18" stroke="#B9B9B9" stroke-opacity="0.25"/>
      <line x1="0" y1="20" x2="128" y2="20" stroke="#B9B9B9" stroke-opacity="0.25"/>
      <line x1="0" y1="22" x2="128" y2="22" stroke="#B9B9B9" stroke-opacity="0.25"/>
      <line x1="0" y1="24" x2="128" y2="24" stroke="#B9B9B9" stroke-opacity="0.5"/>
      <line x1="0" y1="26" x2="128" y2="26" stroke="#B9B9B9" stroke-opacity="0.25"/>
      <line x1="0" y1="28" x2="128" y2="28" stroke="#B9B9B9" stroke-opacity="0.25"/>
      <line x1="0" y1="30" x2="128" y2="30" stroke="#B9B9B9" stroke-opacity="0.25"/>
      <line x1="0" y1="32" x2="128" y2="32" stroke="#B9B9B9" stroke-opacity="0.25"/>
      <line x1="0" y1="34" x2="128" y2="34" stroke="#B9B9B9" stroke-opacity="0.25"/>
      <line x1="0" y1="36" x2="128" y2="36" stroke="#B9B9B9" stroke-opacity="0.5"/>
      <line x1="0" y1="38" x2="128" y2="38" stroke="#B9B9B9" stroke-opacity="0.25"/>
      <line x1="0" y1="40" x2="128" y2="40" stroke="#B9B9B9" stroke-opacity="0.25"/>
      <line x1="0" y1="42" x2="128" y2="42" stroke="#B9B9B9" stroke-opacity="0.25"/>
      <line x1="0" y1="44" x2="128" y2="44" stroke="#B9B9B9" stroke-opacity="0.25"/>
      <line x1="0" y1="46" x2="128" y2="46" stroke="#B9B9B9" stroke-opacity="0.25"/>
      <line x1="0" y1="48" x2="128" y2="48" stroke="#B9B9B9" stroke-opacity="0.5"/>
      <line x1="0" y1="50" x2="128" y2="50" stroke="#B9B9B9" stroke-opacity="0.25"/>
      <line x1="0" y1="52" x2="128" y2="52" stroke="#B9B9B9" stroke-opacity="0.25"/>
      <line x1="0" y1="54" x2="128" y2="54" stroke="#B9B9B9" stroke-opacity="0.25"/>
      <line x1="0" y1="56" x2="128" y2="56" stroke="#B9B9B9" stroke-opacity="0.25"/>
      <line x1="0" y1="58" x2="128" y2="58" stroke="#B9B9B9" stroke-opacity="0.25"/>
      <line x1="0" y1="60" x2="128" y2="60" stroke="#B9B9B9" stroke-opacity="0.5"/>
      <line x1="0" y1="62" x2="128" y2="62" stroke="#B9B9B9" stroke-opacity="0.25"/>
      <line x1="0" y1="64" x2="128" y2="64" stroke="#B9B9B9" stroke-opacity="0.25"/>
      <line x1="0" y1="66" x2="128" y2="66" stroke="#B9B9B9" stroke-opacity="0.25"/>
      <line x1="0" y1="68" x2="128" y2="68" stroke="#B9B9B9" stroke-opacity="0.25"/>
      <line x1="0" y1="70" x2="128" y2="70" stroke="#B9B9B9" stroke-opacity="0.25"/>
      <line x1="0" y1="72" x2="128" y2="72" stroke="#B9B9B9" stroke-opacity="0.5"/>
      <line x1="0" y1="74" x2="128" y2="74" stroke="#B9B9B9" stroke-opacity="0.25"/>
      <line x1="0" y1="76" x2="128" y2="76" stroke="#B9B9B9" stroke-opacity="0.25"/>
      <line x1="0" y1="78" x2="128" y2="78" stroke="#B9B9B9" stroke-opacity="0.25"/>
      <line x1="0" y1="80" x2="128" y2="80" stroke="#B9B9B9" stroke-opacity="0.25"/>
      <line x1="0" y1="82" x2="128" y2="82" stroke="#B9B9B9" stroke-opacity="0.25"/>
      <line x1="0" y1="84" x2="128" y2="84" stroke="#B9B9B9" stroke-opacity="0.5"/>
      <line x1="0" y1="86" x2="128" y2="86" stroke="#B9B9B9" stroke-opacity="0.25"/>
      <line x1="0" y1="88" x2="128" y2="88" stroke="#B9B9B9" stroke-opacity="0.25"/>
      <line x1="0" y1="90" x2="128" y2="90" stroke="#B9B9B9" stroke-opacity="0.25"/>
      <line x1="0" y1="92" x2="128" y2="92" stroke="#B9B9B9" stroke-opacity="0.25"/>
      <line x1="0" y1="94" x2="128" y2="94" stroke="#B9B9B9" stroke-opacity="0.25"/>
      <line x1="0" y1="96" x2="128" y2="96" stroke="#B9B9B9" stroke-opacity="0.5"/>
      <line x1="0" y1="98" x2="128" y2="98" stroke="#B9B9B9" stroke-opacity="0.25"/>
      <line x1="0" y1="100" x2="128" y2="100" stroke="#B9B9B9" stroke-opacity="0.25"/>
      <line x1="0" y1="102" x2="128" y2="102" stroke="#B9B9B9" stroke-opacity="0.25"/>
      <line x1="0" y1="104" x2="128" y2="104" stroke="#B9B9B9" stroke-opacity="0.25"/>
      <line x1="0" y1="106" x2="128" y2="106" stroke="#B9B9B9" stroke-opacity="0.25"/>
      <line x1="0" y1="108" x2="128" y2="108" stroke="#B9B9B9" stroke-opacity="0.5"/>
      <line x1="0" y1="110" x2="128" y2="110" stroke="#B9B9B9" stroke-opacity="0.25"/>
      <line x1="0" y1="112" x2="128" y2="112" stroke="#B9B9B9" stroke-opacity="0.25"/>
      <line x1="0" y1="114" x2="128" y2="114" stroke="#B9B9B9" stroke-opacity="0.25"/>
      <line x1="0" y1="116" x2="128" y2="116" stroke="#B9B9B9" stroke-opacity="0.25"/>
      <line x1="0" y1="118" x2="128" y2="118" stroke="#B9B9B9" stroke-opacity="0.25"/>
      <line x1="0" y1="120" x2="128" y2="120" stroke="#B9B9B9" stroke-opacity="0.5"/>
      <line x1="0" y1="122" x2="128" y2="122" stroke="#B9B9B9" stroke-opacity="0.25"/>
      <line x1="0" y1="124" x2="128" y2="124" stroke="#B9B9B9" stroke-opacity="0.25"/>
      <line x1="0" y1="126" x2="128" y2="126" stroke="#B9B9B9" stroke-opacity="0.25"/>
      <line x1="0" y1="128" x2="128" y2="128" stroke="#B9B9B9" stroke-opacity="0.25"/>
    </g>
  </g>
  <g id="Background">
    <path d="M18.093,6 L109.907,6 C116.561,6 122,11.439 122,18.093 L122,109.907 C122,116.561 116.561,122 109.907,122 L18.093,122 C11.439,122 6,116.561 6,109.907 L6,18.093 C6,11.439 11.439,6 18.093,6" fill="#727272"/>
    <path d="M94.292,44.778 L34.146,44.837 L59.373,88.255 C61.775,92.323 67.147,92.128 69.695,88.168 C77.925,73.713 86.104,59.263 94.292,44.778 z M13.961,33.352 L114.035,33.245 C102.626,53.45 91.146,73.613 79.733,93.817 L79.715,93.826 C72.992,105.683 56.186,105.573 49.431,94.118 z" fill="#EBECEC"/>
    <path d="M21.61,90.73 C23.189,88.109 24.998,85.634 26.999,83.386 L27.012,83.374 C29.063,81.076 31.286,78.98 33.653,77.143 C44.412,68.799 57.578,65.603 70.114,67.184 L70.129,67.192 L70.146,67.188 C82.682,68.777 94.635,75.152 102.979,85.913 C103.504,86.588 104.092,87.406 104.727,88.342 C105.354,89.251 105.91,90.118 106.372,90.889 L96.575,96.741 C96.124,95.987 95.708,95.333 95.333,94.78 C94.972,94.255 94.511,93.62 93.954,92.908 C87.519,84.606 78.34,79.7 68.717,78.485 L68.685,78.482 C59.064,77.263 48.952,79.728 40.649,86.167 C38.754,87.638 37.032,89.241 35.511,90.949 L35.516,90.954 C33.95,92.712 32.551,94.613 31.356,96.604 z" fill="#EBECEC"/>
  </g>
  <defs/>
</svg>
