<?xml version="1.0" encoding="UTF-8"?>
<!DOCTYPE svg PUBLIC "-//W3C//DTD SVG 1.1//EN" "http://www.w3.org/Graphics/SVG/1.1/DTD/svg11.dtd">
<svg version="1.1" xmlns="http://www.w3.org/2000/svg" xmlns:xlink="http://www.w3.org/1999/xlink" x="0px" y="0px" width="128" height="128" viewBox="0, 0, 128, 128">
  <g id="Background">
    <rect x="0" y="0" width="128" height="128" fill="#000000" fill-opacity="0"/>
  </g>
  <g id="Background"/>
  <g id="Background">
    <path d="M18.092,6 L109.903,6 C116.552,6 122,11.441 122,18.096 L122,109.902 C122,116.559 116.552,122 109.903,122 L18.092,122 C11.436,122 6,116.559 6,109.902 L6,18.096 C6,11.441 11.436,6 18.092,6" fill="#737370"/>
    <path d="M64,24 L26,98 L104,98 L64,24 z" fill-opacity="0" stroke="#82D1F5" stroke-width="6" stroke-linecap="square"/>
    <path d="M78,66.819 Q78,69.08 77.282,70.814 Q76.564,72.549 75.25,73.825 Q73.935,75.101 72.098,76.108 Q70.26,77.115 67.948,77.943 L67.948,83.047 L59.38,83.047 L59.38,75.504 Q61.108,75.078 62.508,74.631 Q63.907,74.183 65.441,73.176 Q66.877,72.28 67.692,71.094 Q68.507,69.908 68.507,68.408 Q68.507,66.17 66.938,65.219 Q65.368,64.267 62.52,64.267 Q60.767,64.267 58.565,64.961 Q56.362,65.655 54.536,66.752 L53.563,66.752 L53.563,59.925 Q55.12,59.321 58.358,58.66 Q61.595,58 64.929,58 Q70.941,58 74.471,60.44 Q78,62.88 78,66.819 z M68.629,92 L58.796,92 L58.796,86.091 L68.629,86.091 z" fill="#82D1F5"/>
  </g>
  <defs/>
</svg>
